<svg width="24" height="22" viewBox="0 0 24 22" fill="none" xmlns="http://www.w3.org/2000/svg">
<path id="Star 5" d="M10.8667 1.25538C11.2406 0.181421 12.7594 0.18142 13.1333 1.25538L15.0873 6.86829C15.2552 7.35057 15.7099 7.67376 16.2206 7.67376H22.3581C23.5405 7.67376 24.0102 9.20333 23.0316 9.86695L18.2119 13.1352C17.762 13.4403 17.5734 14.0096 17.7521 14.5229L19.6261 19.9059C20.0059 20.9971 18.7756 21.9421 17.8193 21.2936L12.6735 17.8042C12.2668 17.5285 11.7332 17.5285 11.3265 17.8042L6.18071 21.2936C5.22444 21.9421 3.99407 20.9971 4.37394 19.9059L6.24791 14.5229C6.42661 14.0096 6.23797 13.4403 5.7881 13.1352L0.968429 9.86695C-0.0101986 9.20333 0.459506 7.67376 1.64192 7.67376H7.77941C8.29007 7.67376 8.7448 7.35057 8.9127 6.86829L10.8667 1.25538Z" fill="#D5D1C5"/>
</svg>
